<?xml version="1.0" standalone="no"?>
<!DOCTYPE svg PUBLIC "-//W3C//DTD SVG 20010904//EN"
 "http://www.w3.org/TR/2001/REC-SVG-20010904/DTD/svg10.dtd">
<svg version="1.0" xmlns="http://www.w3.org/2000/svg"
 width="700.000000pt" height="700.000000pt" viewBox="0 0 700.000000 700.000000"
 preserveAspectRatio="xMidYMid meet">
<metadata>
Created by potrace 1.14, written by Peter Selinger 2001-2017
</metadata>
<g transform="translate(0.000000,700.000000) scale(0.100000,-0.100000)"
fill="#000000" stroke="none">
<path d="M3437 6964 c-1 -1 -61 -5 -134 -9 -73 -3 -143 -8 -155 -10 -13 -2
-50 -7 -83 -10 -87 -11 -92 -12 -190 -29 -49 -9 -135 -28 -190 -42 -55 -14
-104 -26 -110 -28 -88 -22 -355 -114 -370 -127 -5 -5 -15 -9 -23 -9 -24 0
-352 -165 -467 -235 -142 -87 -242 -157 -390 -276 -114 -90 -329 -296 -425
-404 -237 -270 -448 -606 -590 -939 -41 -97 -109 -284 -115 -319 -2 -9 -6 -21
-9 -25 -6 -10 -65 -236 -72 -276 -2 -17 -7 -38 -9 -46 -2 -8 -7 -31 -10 -50
-3 -19 -7 -46 -10 -60 -48 -258 -61 -675 -30 -930 3 -19 7 -59 11 -88 3 -29 7
-63 10 -75 2 -12 9 -51 15 -87 5 -36 14 -81 19 -100 5 -19 12 -51 15 -70 19
-113 115 -403 193 -585 84 -197 166 -349 291 -540 36 -55 69 -104 73 -110 5
-5 45 -57 90 -115 87 -111 103 -130 213 -248 74 -78 147 -149 230 -223 27 -24
56 -50 65 -58 39 -38 297 -224 381 -276 313 -194 626 -329 973 -421 55 -14
109 -28 120 -30 12 -2 32 -6 46 -9 43 -9 193 -34 235 -40 22 -3 54 -7 70 -10
165 -24 635 -25 776 0 13 2 47 7 74 10 44 5 106 14 185 29 449 82 927 283
1320 554 226 156 524 424 686 617 273 325 476 677 619 1070 50 138 127 423
122 453 -15 87 -118 135 -185 86 -31 -23 -58 -73 -67 -123 -3 -19 -8 -37 -10
-41 -2 -3 -6 -17 -9 -31 -18 -89 -102 -337 -151 -444 -107 -235 -190 -384
-308 -555 -315 -451 -724 -807 -1212 -1054 -77 -39 -158 -79 -180 -88 -94 -39
-196 -77 -275 -102 -47 -15 -105 -33 -130 -41 -57 -18 -222 -56 -310 -70 -25
-4 -52 -9 -61 -10 -9 -2 -40 -6 -70 -10 -30 -3 -65 -8 -79 -10 -47 -7 -224
-17 -320 -18 -101 0 -345 11 -370 18 -8 2 -40 7 -70 10 -30 3 -77 10 -105 15
-27 5 -61 12 -75 14 -287 53 -577 153 -859 296 -624 319 -1127 829 -1431 1455
-43 88 -96 208 -119 267 -38 98 -106 319 -117 378 -3 14 -10 43 -16 65 -5 22
-12 49 -14 60 -2 11 -6 31 -8 45 -3 14 -8 43 -11 65 -5 38 -9 61 -20 130 -26
158 -26 706 0 805 2 8 6 35 9 60 3 25 8 55 10 66 2 12 7 38 10 59 4 20 20 94
36 163 183 768 652 1449 1310 1903 95 65 242 155 268 163 29 9 88 -10 99 -32
4 -9 10 -1051 13 -2315 l5 -2299 37 -34 c29 -26 46 -34 75 -34 47 0 100 31
115 68 8 19 12 254 12 827 l1 800 23 33 c46 64 -25 60 1142 59 1150 -2 1082 1
1125 -55 20 -26 20 -47 25 -844 l5 -818 31 -31 c56 -56 148 -47 191 18 17 25
18 83 18 834 0 802 0 808 21 836 45 61 -10 58 1032 60 853 1 956 3 977 17 78
51 79 159 3 206 -32 20 -48 20 -983 20 -924 0 -951 1 -982 20 -18 10 -40 31
-50 46 -17 27 -18 93 -18 1303 -1 702 3 1287 7 1302 11 31 59 61 91 55 43 -8
255 -134 404 -240 570 -406 990 -978 1202 -1636 22 -69 50 -168 63 -220 27
-114 52 -148 115 -157 73 -10 126 28 138 97 10 54 -76 355 -165 580 -335 845
-1023 1545 -1875 1907 -182 78 -492 177 -625 199 -14 3 -38 7 -55 11 -121 27
-304 50 -470 58 -119 7 -255 11 -258 9z m363 -257 c14 -3 51 -8 84 -12 200
-23 585 -115 651 -155 17 -10 41 -34 55 -52 l25 -33 3 -1364 c2 -1355 2 -1363
-18 -1396 -43 -69 26 -65 -1142 -65 -1026 0 -1054 1 -1085 20 -18 10 -40 31
-50 47 -17 26 -18 93 -18 1373 l0 1347 28 42 c20 30 44 50 80 67 52 23 339
109 400 119 18 3 66 12 107 20 41 8 98 17 125 21 28 4 59 8 69 10 10 2 58 6
105 10 47 4 88 8 89 9 6 5 464 -3 492 -8z"/>
</g>
</svg>
