<?xml version="1.0" encoding="UTF-8" standalone="no"?>
<!DOCTYPE svg PUBLIC "-//W3C//DTD SVG 1.1//EN" "http://www.w3.org/Graphics/SVG/1.1/DTD/svg11.dtd">
<svg width="100%" height="100%" viewBox="0 0 1024 1024" version="1.1" xmlns="http://www.w3.org/2000/svg" xmlns:xlink="http://www.w3.org/1999/xlink" xml:space="preserve" xmlns:serif="http://www.serif.com/" style="fill-rule:evenodd;clip-rule:evenodd;stroke-linejoin:round;stroke-miterlimit:2;">
    <g transform="matrix(0.146725,0,0,-0.146725,-0.785035,1025.42)">
        <path d="M3437,6964C3436,6963 3376,6959 3303,6955C3230,6952 3160,6947 3148,6945C3135,6943 3098,6938 3065,6935C2978,6924 2973,6923 2875,6906C2826,6897 2740,6878 2685,6864C2630,6850 2581,6838 2575,6836C2487,6814 2220,6722 2205,6709C2200,6704 2190,6700 2182,6700C2158,6700 1830,6535 1715,6465C1573,6378 1473,6308 1325,6189C1211,6099 996,5893 900,5785C663,5515 452,5179 310,4846C269,4749 201,4562 195,4527C193,4518 189,4506 186,4502C180,4492 121,4266 114,4226C112,4209 107,4188 105,4180C103,4172 98,4149 95,4130C92,4111 88,4084 85,4070C37,3812 24,3395 55,3140C58,3121 62,3081 66,3052C69,3023 73,2989 76,2977C78,2965 85,2926 91,2890C96,2854 105,2809 110,2790C115,2771 122,2739 125,2720C144,2607 240,2317 318,2135C402,1938 484,1786 609,1595C645,1540 678,1491 682,1485C687,1480 727,1428 772,1370C859,1259 875,1240 985,1122C1059,1044 1132,973 1215,899C1242,875 1271,849 1280,841C1319,803 1577,617 1661,565C1974,371 2287,236 2634,144C2689,130 2743,116 2754,114C2766,112 2786,108 2800,105C2843,96 2993,71 3035,65C3057,62 3089,58 3105,55C3270,31 3740,30 3881,55C3894,57 3928,62 3955,65C3999,70 4061,79 4140,94C4589,176 5067,377 5460,648C5686,804 5984,1072 6146,1265C6419,1590 6622,1942 6765,2335C6815,2473 6892,2758 6887,2788C6872,2875 6769,2923 6702,2874C6671,2851 6644,2801 6635,2751C6632,2732 6627,2714 6625,2710C6623,2707 6619,2693 6616,2679C6598,2590 6514,2342 6465,2235C6358,2000 6275,1851 6157,1680C5842,1229 5433,873 4945,626C4868,587 4787,547 4765,538C4671,499 4569,461 4490,436C4443,421 4385,403 4360,395C4303,377 4138,339 4050,325C4025,321 3998,316 3989,315C3980,313 3949,309 3919,305C3889,302 3854,297 3840,295C3793,288 3616,278 3520,277C3419,277 3175,288 3150,295C3142,297 3110,302 3080,305C3050,308 3003,315 2975,320C2948,325 2914,332 2900,334C2613,387 2323,487 2041,630C1417,949 914,1459 610,2085C567,2173 514,2293 491,2352C453,2450 385,2671 374,2730C371,2744 364,2773 358,2795C353,2817 346,2844 344,2855C342,2866 338,2886 336,2900C333,2914 328,2943 325,2965C320,3003 316,3026 305,3095C279,3253 279,3801 305,3900C307,3908 311,3935 314,3960C317,3985 322,4015 324,4026C326,4038 331,4064 334,4085C338,4105 354,4179 370,4248C553,5016 1022,5697 1680,6151C1775,6216 1922,6306 1948,6314C1977,6323 2036,6304 2047,6282C2051,6273 2057,5231 2060,3967L2065,1668L2102,1634C2131,1608 2148,1600 2177,1600C2224,1600 2277,1631 2292,1668C2300,1687 2304,1922 2304,2495L2305,3295L2328,3328C2374,3392 2303,3388 3470,3387C4620,3385 4552,3388 4595,3332C4615,3306 4615,3285 4620,2488L4625,1670L4656,1639C4712,1583 4804,1592 4847,1657C4864,1682 4865,1740 4865,2491C4865,3293 4865,3299 4886,3327C4931,3388 4876,3385 5918,3387C6771,3388 6874,3390 6895,3404C6973,3455 6974,3563 6898,3610C6866,3630 6850,3630 5915,3630C4991,3630 4964,3631 4933,3650C4915,3660 4893,3681 4883,3696C4866,3723 4865,3789 4865,4999C4864,5701 4868,6286 4872,6301C4883,6332 4931,6362 4963,6356C5006,6348 5218,6222 5367,6116C5937,5710 6357,5138 6569,4480C6591,4411 6619,4312 6632,4260C6659,4146 6684,4112 6747,4103C6820,4093 6873,4131 6885,4200C6895,4254 6809,4555 6720,4780C6385,5625 5697,6325 4845,6687C4663,6765 4353,6864 4220,6886C4206,6889 4182,6893 4165,6897C4044,6924 3861,6947 3695,6955C3576,6962 3440,6966 3437,6964ZM3800,6707C3814,6704 3851,6699 3884,6695C4084,6672 4469,6580 4535,6540C4552,6530 4576,6506 4590,6488L4615,6455L4618,5091C4620,3736 4620,3728 4600,3695C4557,3626 4626,3630 3458,3630C2432,3630 2404,3631 2373,3650C2355,3660 2333,3681 2323,3697C2306,3723 2305,3790 2305,5070L2305,6417L2333,6459C2353,6489 2377,6509 2413,6526C2465,6549 2752,6635 2813,6645C2831,6648 2879,6657 2920,6665C2961,6673 3018,6682 3045,6686C3073,6690 3104,6694 3114,6696C3124,6698 3172,6702 3219,6706C3266,6710 3307,6714 3308,6715C3314,6720 3772,6712 3800,6707Z" style="fill-rule:nonzero;" fill="#FFFFFF"/>
    </g>
</svg>
